# xmcd
#
# Track frame offsets:
#	150
#	13755
#	29335
#	48910
#	63967
#	85892
#	99815
#	112832
#	129562
#	143077
#
# Disc length: 2138 seconds
#
# Revision: 0
# Processed by: cddbd v1.5.2PL0 Copyright (c) Steve Scherf et al.
# Submitted via: dBpowerAMP V4.0
#
DISCID=7508580a
DTITLE=Brooks and Dunn - Brooks and Dunn Waitin on Sundown
DYEAR=2008
DGENRE=Country
TTITLE0=Little Miss Honky Tonk
TTITLE1=She's Not the Cheatin' kind
TTITLE2=Silver and Gold
TTITLE3=I'll Never Forgive my Heart
TTITLE4=You're gonna Miss Me When I'm gone
TTITLE5=My Kind of Crazy
TTITLE6=Whiskey Under the Bridge
TTITLE7=If That's the Way You Want It
TTITLE8=She's the Kind of trouble
TTITLE9=Few Good rides Away
EXTD=Brooks and Dunn waitin on Sundown
EXTT0=
EXTT1=
EXTT2=
EXTT3=
EXTT4=
EXTT5=
EXTT6=
EXTT7=
EXTT8=
EXTT9=
PLAYORDER=
